<svg width="199" height="199" viewBox="0 0 199 199" fill="none" xmlns="http://www.w3.org/2000/svg">
<g clip-path="url(#clip0_81_2149)">
<path d="M75.6325 98.8984C72.9848 98.8984 70.8285 99.6944 69.1712 101.272C67.5186 102.852 66.6868 104.923 66.6868 107.46C66.6868 108.774 66.8874 109.976 67.3009 111.075C67.7315 112.205 68.3814 113.239 69.2132 114.117C70.0683 115.041 71.7877 116.286 74.3436 117.883C77.4903 119.814 79.5441 121.381 80.5329 122.601C81.5216 123.822 82.016 125.104 82.016 126.44C82.016 128.225 81.433 129.658 80.2235 130.728C79.0217 131.796 77.4126 132.337 75.4086 132.337C73.3067 132.337 71.4721 131.584 69.9003 130.101C68.3208 128.619 67.5248 126.659 67.5061 124.193H66.5298V133.133H67.5061C67.8046 132.282 68.2228 131.85 68.7639 131.85C69.0251 131.85 69.6329 132.027 70.586 132.366C72.8993 133.193 74.7945 133.599 76.2886 133.599C78.8569 133.599 81.0615 132.688 82.8835 130.847C84.7119 129.008 85.6353 126.786 85.6353 124.193C85.6353 122.183 85.0275 120.39 83.8366 118.836C82.6348 117.275 80.3152 115.454 76.8405 113.371C73.8539 111.561 71.9106 110.097 71.0104 108.949C70.1102 107.802 69.65 106.54 69.65 105.148C69.65 103.636 70.2035 102.434 71.2902 101.529C72.3707 100.629 73.7871 100.179 75.5719 100.179C77.5634 100.179 79.2347 100.781 80.5515 101.978C81.8699 103.186 82.6286 104.85 82.8525 106.994H83.8366V99.2451H82.9271C82.8105 99.6462 82.7079 99.895 82.6161 100.01C82.5197 100.125 82.3487 100.181 82.0767 100.181C81.7657 100.181 81.2014 100.046 80.4007 99.7846C78.6812 99.2016 77.097 98.8984 75.6325 98.8984ZM107.656 98.8984C104.425 98.8984 101.492 99.6696 98.8377 101.199C96.1844 102.735 94.0814 104.857 92.5288 107.564C90.9835 110.266 90.2097 113.147 90.2077 116.207C90.2077 120.317 91.5509 123.986 94.2468 127.198C96.955 130.412 100.186 132.416 103.939 133.181C104.802 133.63 106.034 134.79 107.643 136.679C109.447 138.793 110.985 140.323 112.247 141.234C113.477 142.131 114.849 142.816 116.305 143.261C117.737 143.7 119.291 143.911 120.973 143.911C123.008 143.911 124.837 143.56 126.44 142.825L126.082 141.926C125.127 142.266 124.119 142.436 123.105 142.43C121.69 142.43 120.252 141.956 118.812 141.009C117.373 140.062 115.569 138.252 113.432 135.586C112.423 134.305 111.725 133.496 111.336 133.181C115.44 132.372 118.825 130.375 121.46 127.169C124.095 123.963 125.407 120.306 125.407 116.207C125.407 111.336 123.688 107.249 120.269 103.915C116.85 100.582 112.642 98.8984 107.656 98.8984ZM127.641 98.8984L127.696 99.9618C129.846 99.9618 131.048 100.593 131.315 101.874C131.419 102.336 131.468 103.186 131.48 104.4L131.461 127.721C131.436 129.464 131.194 130.575 130.72 131.056C130.247 131.534 129.439 131.838 128.279 131.954L128.231 133.011H149.674L150.226 127.721H149.244C148.97 129.16 148.327 130.193 147.3 130.776C146.279 131.365 144.471 131.662 141.859 131.662H139.824C137.471 131.663 136.115 130.805 135.755 129.087C135.685 128.721 135.65 128.349 135.651 127.976L135.737 104.4C135.737 102.664 135.954 101.498 136.411 100.927C136.861 100.357 137.692 100.041 138.883 99.9618L138.834 98.8984H127.641ZM108.001 100.179C111.639 100.179 114.621 101.625 116.916 104.534C119.217 107.455 120.353 111.445 120.353 116.497C120.354 121.289 119.198 125.128 116.886 128.013C114.571 130.897 111.487 132.335 107.654 132.335C103.974 132.335 100.993 130.855 98.7025 127.873C96.414 124.897 95.2775 121.034 95.2775 116.274C95.2754 111.39 96.4275 107.482 98.7336 104.551C101.043 101.638 104.132 100.181 108.001 100.179ZM157.32 105.196C156.802 105.199 156.397 105.377 156.106 105.731C155.795 106.089 155.705 106.52 155.808 107.042C155.912 107.558 156.203 107.996 156.658 108.379C157.101 108.749 157.594 108.949 158.116 108.949C158.343 108.958 158.568 108.911 158.771 108.811C158.975 108.712 159.151 108.563 159.282 108.379C159.562 107.996 159.646 107.558 159.544 107.042C159.43 106.526 159.145 106.064 158.735 105.731C158.343 105.39 157.841 105.2 157.32 105.196ZM171.465 108.772C170.583 112.211 168.653 114.074 165.696 114.372L165.727 115.356H169.181L169.114 127.01C169.121 129.002 169.176 130.326 169.321 131.001C169.662 132.617 170.711 133.442 172.466 133.442C175.007 133.443 177.669 131.886 180.453 128.772L179.613 128.049C177.605 130.097 175.824 131.121 174.27 131.122C173.311 131.122 172.72 130.576 172.497 129.482C172.439 129.174 172.413 128.86 172.418 128.546L172.449 115.356H177.726L177.671 113.789H172.466V108.774L171.465 108.772ZM191.87 113.164C188.918 113.164 186.519 114.61 184.649 117.471C182.797 120.336 182.22 123.512 182.948 127.01C183.38 129.056 184.237 130.642 185.547 131.766C186.853 132.882 188.517 133.436 190.497 133.436C192.343 133.436 194.913 132.968 195.999 132.021C197.08 131.079 198.083 129.543 199.006 127.441L198.265 126.664C196.788 129.384 193.818 130.757 191.58 130.757C188.493 130.757 186.611 129.056 185.905 125.681C185.811 125.224 185.742 124.761 185.7 124.296C189.371 123.714 192.142 122.678 194.014 121.186C195.895 119.692 197.773 118.102 197.42 116.431C197.233 115.479 196.693 114.633 195.908 114.063C195.107 113.474 193.03 113.164 191.87 113.164ZM159.61 113.286L153.252 114.755V115.897L155.45 115.624C156.52 115.624 157.145 116.103 157.345 117.07C157.406 117.396 157.454 117.847 157.467 118.418L157.393 128.881C157.375 130.32 157.218 131.164 156.896 131.419C156.575 131.669 155.722 131.795 154.339 131.796L154.297 132.786H164.39L164.371 131.796C162.975 131.796 162.064 131.687 161.656 131.469C161.262 131.25 160.983 130.861 160.862 130.26C160.776 129.829 160.735 129.081 160.728 128.049L160.759 113.286H159.61ZM190.253 115.223C190.867 115.223 191.463 115.459 192.057 115.927C192.654 116.393 193.011 116.922 193.126 117.488C193.703 120.263 191.25 122.188 185.731 123.257C185.578 121.228 185.925 119.389 186.818 117.73C187.704 116.067 188.857 115.223 190.253 115.223Z" fill="#003956"/>
<path d="M61.3977 58.9818H6.66802C2.99896 58.9818 -0.00158691 61.9995 -0.00158691 65.6872V126.387C-0.00158691 130.071 2.99896 133.091 6.66802 133.091H42.7119C42.3046 115.053 48.4269 80.0494 61.3992 58.9756L61.3977 58.9818Z" fill="#0B7FCC"/>
<path d="M59.3999 60.936H6.66803C5.41177 60.9401 4.20849 61.4426 3.32237 62.3331C2.43625 63.2236 1.93971 64.4293 1.94178 65.6856V121.957C13.8896 117.348 31.8104 113.363 44.206 113.553C46.7012 100.447 54.0191 74.7758 59.3999 60.9282V60.936Z" fill="url(#paint0_linear_81_2149)"/>
<path d="M74.157 56.9887C70.4102 53.6306 65.8674 54.9785 61.3977 58.974C60.7282 59.5721 60.0622 60.224 59.3999 60.9298C51.7416 69.1106 44.6304 84.2502 42.4259 95.8186C43.2809 97.5676 43.9557 99.8079 44.4003 101.521C44.616 102.375 44.8141 103.234 44.9942 104.096C44.9942 104.096 44.9211 103.828 44.6428 103.009L44.4532 102.468C44.4195 102.371 44.3811 102.276 44.3381 102.183C43.8406 101.011 42.457 98.5455 41.8491 97.4712C41.3665 98.8926 40.9129 100.324 40.4887 101.764C42.2377 104.994 43.3058 110.54 43.3058 110.54C43.3058 110.54 43.2203 110.176 42.7772 108.931C42.3823 107.819 40.4343 104.382 39.9663 103.573C39.1766 106.513 38.8672 108.492 39.1455 108.979C39.6989 109.915 40.2275 111.524 40.6893 113.317C41.7278 117.335 42.443 122.225 42.443 122.225L42.5052 123.049C42.3729 126.399 42.4414 129.754 42.7104 133.095C43.0524 137.279 43.7054 140.875 44.5262 142.806L45.0922 142.495C43.8764 138.702 43.3851 133.727 43.5981 127.994C43.9246 119.231 45.9301 108.657 49.6334 97.6469C55.9019 81.0117 64.5802 67.671 72.5293 61.2983C65.2844 67.8824 55.4821 89.1816 52.5438 97.0763C49.2587 105.899 46.9329 114.19 45.5244 122.138C47.9528 114.692 55.7822 111.493 55.7822 111.493C55.7822 111.493 59.6192 106.731 64.1075 99.9183C61.4226 100.537 57.0026 101.594 55.5257 102.213C53.3398 103.136 52.7583 103.452 52.7583 103.452C52.7583 103.452 59.8259 99.1285 65.8799 97.1603C74.2192 83.9579 83.3048 65.1975 74.1586 56.9872" fill="#003956"/>
</g>
<defs>
<linearGradient id="paint0_linear_81_2149" x1="35.0731" y1="62.1792" x2="35.0731" y2="118.562" gradientUnits="userSpaceOnUse">
<stop stop-color="#95D7F4"/>
<stop offset="0.92" stop-color="#0F7FCC"/>
<stop offset="1" stop-color="#0F7FCC"/>
</linearGradient>
<clipPath id="clip0_81_2149">
<rect width="199" height="199" fill="white"/>
</clipPath>
</defs>
</svg>
