<svg width="211" height="199" viewBox="0 0 211 199" fill="none" xmlns="http://www.w3.org/2000/svg">
<path fill-rule="evenodd" clip-rule="evenodd" d="M121.449 78.978H140.045V96.8569H149.425C153.704 96.8569 158.147 96.0796 162.261 94.8358C164.236 94.214 166.54 93.2812 168.515 92.1929C165.882 88.928 164.565 84.8858 164.236 80.8437C163.742 75.4022 164.894 68.2507 168.844 64.053L170.819 61.8765L173.123 63.5866C179.047 68.0952 183.819 74.1585 184.807 81.3101C191.883 79.289 200.111 79.7554 206.365 83.1757L208.833 84.5749L207.517 87.0624C202.251 96.7015 191.225 99.8108 180.528 99.189C164.401 136.968 129.513 154.847 87.055 154.847C65.1678 154.847 45.0908 147.073 33.5712 128.728L33.4067 128.417L31.761 125.152C27.8114 117.068 26.6595 108.206 27.4823 99.3444L27.8114 96.7015H43.6097V78.978H62.2056V61.5655H99.2328V43.9976H121.449V78.978Z" fill="#3A4D54"/>
<path d="M181.68 85.6632C182.997 76.4906 175.756 69.339 171.148 65.9187C166.046 71.5156 165.224 86.4406 173.287 92.6593C168.679 96.3906 159.299 99.9664 149.425 99.9664H30.6091C29.6217 109.605 31.4319 118.467 35.5461 126.085L36.8626 128.417C37.6854 129.816 38.6728 131.06 39.6602 132.459C44.5972 132.77 49.0404 132.926 53.1546 132.77C61.2183 132.615 67.8009 131.682 72.9024 130.127C73.7252 129.816 74.3835 130.283 74.7126 130.905C75.0418 131.682 74.5481 132.304 73.8898 132.615C73.2315 132.77 72.5733 133.081 71.7505 133.237C67.8009 134.325 63.5222 134.947 58.0915 135.258H57.1041C54.9648 135.413 52.6609 135.413 50.1924 135.413C47.5593 135.413 45.0909 135.413 42.1287 135.258C52.0026 145.83 67.4718 152.048 86.8905 152.048C128.032 152.048 162.92 134.791 178.224 96.2351C189.25 97.3234 199.782 94.6804 204.555 85.8187C197.149 81.621 187.275 83.0203 181.68 85.6632Z" fill="#00AADA"/>
<path d="M181.68 85.6632C182.997 76.4906 175.756 69.339 171.148 65.9187C166.046 71.5156 165.223 86.4406 173.287 92.6593C168.679 96.3906 159.299 99.9664 149.425 99.9664H37.5208C37.0271 114.736 42.7869 125.93 53.1545 132.615C61.2182 132.459 67.8008 131.527 72.9023 129.972C73.7252 129.661 74.3834 130.127 74.7126 130.749C75.0417 131.527 74.548 132.148 73.8897 132.459C73.2315 132.615 72.5732 132.926 71.7504 133.081C67.8008 134.169 63.193 134.947 57.7623 135.258L57.5978 135.102C71.5858 141.943 91.8273 141.787 115.196 133.392C141.197 123.909 165.553 105.874 182.503 85.3523C182.174 85.5078 181.845 85.5078 181.68 85.6632Z" fill="#28B8EB"/>
<path d="M30.7737 111.626C31.4319 116.757 33.0776 121.576 35.5461 126.085L36.8626 128.417C37.6854 129.816 38.6728 131.06 39.6602 132.459C44.5972 132.77 49.0404 132.926 53.1546 132.77C61.2183 132.615 67.8009 131.682 72.9024 130.127C73.7252 129.816 74.3835 130.283 74.7126 130.905C75.0418 131.682 74.5481 132.304 73.8898 132.615C73.2315 132.77 72.5733 133.081 71.7504 133.237C67.8009 134.325 63.193 135.102 57.7624 135.413H57.1041C54.9648 135.569 52.6609 135.569 50.357 135.569C47.7239 135.569 45.0909 135.569 42.2933 135.413C52.1672 145.985 67.8009 152.204 87.2196 152.204C122.437 152.204 153.046 139.611 170.819 111.782H30.7737V111.626Z" fill="#028BB8"/>
<path d="M38.6729 111.626C40.8122 120.644 45.7492 127.795 53.1546 132.615C61.2183 132.459 67.8009 131.526 72.9024 129.972C73.7253 129.661 74.3835 130.127 74.7127 130.749C75.0418 131.526 74.5481 132.148 73.8898 132.459C73.2316 132.615 72.5733 132.926 71.7505 133.081C67.8009 134.169 63.1931 134.947 57.5979 135.258C71.5859 142.098 91.8275 141.943 115.031 133.548C129.019 128.417 142.678 120.799 154.856 111.626H38.6729Z" fill="#019BC6"/>
<path fill-rule="evenodd" clip-rule="evenodd" d="M46.7366 81.932H62.864V97.168H46.7366V81.932ZM48.0531 83.1758H49.3696V95.7687H48.0531V83.1758ZM50.357 83.1758H51.6735V95.7687H50.357V83.1758ZM52.8255 83.1758H54.142V95.7687H52.8255V83.1758ZM55.294 83.1758H56.6105V95.7687H55.294V83.1758ZM57.7624 83.1758H59.079V95.7687H57.7624V83.1758ZM60.2309 83.1758H61.5475V95.7687H60.2309V83.1758ZM65.1679 64.5195H81.2953V79.7555H65.1679V64.5195ZM66.649 65.7633H67.9655V78.3563H66.649V65.7633ZM68.9529 65.7633H70.2694V78.3563H68.9529V65.7633ZM71.4214 65.7633H72.7379V78.3563H71.4214V65.7633ZM73.8899 65.7633H75.2064V78.3563H73.8899V65.7633ZM76.1938 65.7633H77.5103V78.3563H76.1938V65.7633ZM78.6622 65.7633H79.9788V78.3563H78.6622V65.7633Z" fill="#00ACD3"/>
<path fill-rule="evenodd" clip-rule="evenodd" d="M65.168 81.9321H81.2954V97.1681H65.168V81.9321ZM66.6491 83.1759H67.9656V95.7688H66.6491V83.1759ZM68.953 83.1759H70.2695V95.7688H68.953V83.1759ZM71.4215 83.1759H72.738V95.7688H71.4215V83.1759ZM73.8899 83.1759H75.2065V95.7688H73.8899V83.1759ZM76.1938 83.1759H77.5104V95.7688H76.1938V83.1759ZM78.6623 83.1759H79.9788V95.7688H78.6623V83.1759Z" fill="#23C2EE"/>
<path fill-rule="evenodd" clip-rule="evenodd" d="M83.7637 81.9321H99.8911V97.1681H83.7637V81.9321ZM85.0802 83.1759H86.3967V95.7688H85.0802V83.1759ZM87.5487 83.1759H88.8652V95.7688H87.5487V83.1759ZM90.0172 83.1759H91.3337V95.7688H90.0172V83.1759ZM92.3211 83.1759H93.6376V95.7688H92.3211V83.1759ZM94.7895 83.1759H96.1061V95.7688H94.7895V83.1759ZM97.258 83.1759H98.5746V95.7688H97.258V83.1759Z" fill="#00ACD3"/>
<path fill-rule="evenodd" clip-rule="evenodd" d="M83.7637 64.5195H99.8911V79.7555H83.7637V64.5195ZM85.0802 65.7633H86.3967V78.3563H85.0802V65.7633ZM87.5487 65.7633H88.8652V78.3563H87.5487V65.7633ZM90.0172 65.7633H91.3337V78.3563H90.0172V65.7633ZM92.3211 65.7633H93.6376V78.3563H92.3211V65.7633ZM94.7895 65.7633H96.1061V78.3563H94.7895V65.7633ZM97.258 65.7633H98.5746V78.3563H97.258V65.7633ZM102.36 81.932H118.487V97.168H102.36V81.932ZM103.676 83.1758H104.993V95.7687H103.676V83.1758ZM106.145 83.1758H107.461V95.7687H106.145V83.1758ZM108.448 83.1758H109.765V95.7687H108.448V83.1758ZM110.917 83.1758H112.233V95.7687H110.917V83.1758ZM113.385 83.1758H114.702V95.7687H113.385V83.1758ZM115.854 83.1758H117.17V95.7687H115.854V83.1758Z" fill="#23C2EE"/>
<path fill-rule="evenodd" clip-rule="evenodd" d="M102.36 64.5195H118.487V79.7555H102.36V64.5195ZM103.676 65.7633H104.993V78.3563H103.676V65.7633ZM106.145 65.7633H107.461V78.3563H106.145V65.7633ZM108.449 65.7633H109.765V78.3563H108.449V65.7633ZM110.917 65.7633H112.234V78.3563H110.917V65.7633ZM113.385 65.7633H114.702V78.3563H113.385V65.7633ZM115.854 65.7633H117.17V78.3563H115.854V65.7633Z" fill="#00ACD3"/>
<path fill-rule="evenodd" clip-rule="evenodd" d="M102.36 46.9517H118.487V62.1876H102.36V46.9517ZM103.676 48.1954H104.993V60.7884H103.676V48.1954ZM106.145 48.1954H107.461V60.7884H106.145V48.1954ZM108.449 48.1954H109.765V60.7884H108.449V48.1954ZM110.917 48.1954H112.234V60.7884H110.917V48.1954ZM113.385 48.1954H114.702V60.7884H113.385V48.1954ZM115.854 48.1954H117.17V60.7884H115.854V48.1954Z" fill="#23C2EE"/>
<path fill-rule="evenodd" clip-rule="evenodd" d="M120.956 81.9321H137.083V97.1681H120.956V81.9321ZM122.272 83.1759H123.589V95.7688H122.272V83.1759ZM124.576 83.1759H125.893V95.7688H124.576V83.1759ZM127.044 83.1759H128.361V95.7688H127.044V83.1759ZM129.513 83.1759H130.829V95.7688H129.513V83.1759ZM131.981 83.1759H133.298V95.7688H131.981V83.1759ZM134.45 83.1759H135.766V95.7688H134.45V83.1759Z" fill="#00ACD3"/>
<path fill-rule="evenodd" clip-rule="evenodd" d="M80.3078 121.732C82.7762 121.732 84.751 123.598 84.751 125.93C84.751 128.262 82.7762 130.127 80.3078 130.127C77.8393 130.127 75.8645 128.262 75.8645 125.93C75.8645 123.598 77.8393 121.732 80.3078 121.732Z" fill="#D4EEF1"/>
<path fill-rule="evenodd" clip-rule="evenodd" d="M80.308 122.976C80.6371 122.976 81.1308 122.976 81.4599 123.131C81.1308 123.287 80.8017 123.753 80.8017 124.22C80.8017 124.841 81.4599 125.463 82.1182 125.463C82.6119 125.463 83.1056 125.152 83.2701 124.841C83.4347 125.152 83.4347 125.619 83.4347 125.93C83.4347 127.64 81.9536 128.884 80.308 128.884C78.4977 128.884 77.1812 127.484 77.1812 125.93C77.1812 124.375 78.4977 122.976 80.308 122.976ZM1.8103 113.181H208.175C203.732 112.093 194.023 110.694 195.504 105.097C187.275 113.959 167.692 111.316 162.591 106.963C156.995 114.581 124.741 111.627 122.601 105.719C115.69 113.492 94.1314 113.492 87.2197 105.719C84.9158 111.627 52.661 114.581 47.2303 106.963C42.2934 111.316 22.5455 113.959 14.3173 105.097C16.1275 110.538 6.25357 112.093 1.8103 113.181Z" fill="#3A4D54"/>
<path d="M92.1565 152.048C81.1307 147.073 75.2063 140.388 71.7504 133.081C67.6363 134.17 62.6994 134.947 57.1041 135.258C54.9648 135.413 52.6609 135.413 50.357 135.413C47.5593 135.413 44.7617 135.413 41.7996 135.258C51.6735 144.586 64.1804 151.893 87.055 152.048H92.1565Z" fill="#BFDBE0"/>
<path d="M75.8647 139.766C74.3836 137.745 72.9025 135.413 71.7506 133.081C67.6364 134.17 62.6995 134.947 57.1042 135.258C60.8893 137.123 66.4845 138.989 75.8647 139.766Z" fill="#D4EEF1"/>
</svg>
