<svg width="512" height="87" viewBox="0 0 512 87" fill="none" xmlns="http://www.w3.org/2000/svg">
<g clip-path="url(#clip0_76_2136)">
<path d="M477.95 0C496.27 0 506.084 16.653 506.084 42.634C506.084 60.469 501.947 72.837 494.201 79.464L511.994 78.156V85.185H477.443C458.975 85.185 448.802 71.318 448.802 42.635C448.802 13.95 460.769 0 477.949 0M379.679 1.456L403.064 74.716H403.317L426.787 1.456H438.522V85.142H431.895V8.147L407.116 85.142H399.476L374.36 8.147V85.142H367.67V1.456H379.679ZM477.864 7.218C463.575 7.218 456.758 18.806 456.758 42.656C456.758 66.506 462.161 78.156 477.505 78.156C492.849 78.156 498.041 64.247 498.041 42.656C498.041 21.065 492.153 7.218 477.864 7.218Z" fill="#A9B5AF"/>
<path d="M338.923 10.025V27.375H354.352V33.1581H338.944V70.305C338.944 71.972 338.544 80.583 347.682 80.583C349.943 80.5597 352.19 80.2115 354.352 79.549V85.944C352.308 86.227 350.251 86.404 348.189 86.472C344.088 86.7202 340.026 85.5501 336.686 83.158C334.153 81.048 332.908 77.333 332.908 72.246V33.18H323.663V27.397H332.908V14.057L338.923 10.025ZM207.516 1.43505V38.3301H207.727C208.704 34.8089 210.811 31.7067 213.726 29.502C216.64 27.2972 220.198 26.1124 223.852 26.13C228.496 26.13 243.903 29.064 243.903 56.924C243.903 84.784 226.343 86.473 221.531 86.473C201.922 86.473 201.429 65.6151 201.417 61.7211V1.43505H207.516ZM259.374 1.43505V38.3301H259.627C260.604 34.8089 262.711 31.7067 265.626 29.502C268.54 27.2972 272.098 26.1124 275.752 26.13C280.396 26.13 295.803 29.064 295.803 56.924C295.803 84.784 278.243 86.473 273.431 86.473C253.822 86.473 253.329 65.6151 253.317 61.7211V1.43505H259.374ZM173.408 26.087C191.631 26.087 191.468 39.2831 191.455 45.3531V85.143H185.439V76.974H185.186C183.223 79.9171 180.571 82.337 177.461 84.024C174.313 85.6769 170.8 86.5115 167.245 86.451C164.839 86.451 152.471 85.944 152.471 71.022C152.471 56.1 168.638 53.525 178.537 52.765C180.801 52.546 184.264 52.5171 185.159 52.5131H185.376V46.8931L185.377 46.745V46.439C185.369 41.582 184.891 31.87 172.839 31.87C162.939 31.87 161.505 37.8641 160.829 41.2411H153.399C153.399 38.4981 154.813 26.087 173.408 26.087ZM116.211 1.60405C138.203 1.60405 142.994 13.149 142.994 23.027C142.994 33.791 137.887 41.6851 126.11 43.9851C126.11 43.9851 133.286 46.095 135.797 50.001C137.697 52.955 138.625 55.8681 140.018 62.6641L144.768 85.248H137.465L133.243 65.45C131.913 59.963 131.069 51.372 123.661 48.565C121.155 47.6767 118.509 47.2478 115.851 47.299H105.805V85.142H98.5451V1.60405H116.211ZM312.139 27.396V85.142H306.082V27.396H312.139ZM223.177 31.849C216.887 31.849 207.748 38.709 207.748 57.704C207.748 80.146 219.038 80.595 221.398 80.604H221.595C223.816 80.592 236.6 79.8851 236.6 56.7541L236.598 56.2261C236.458 38.2001 229.404 31.849 223.177 31.849ZM275.077 31.849C268.787 31.849 259.648 38.709 259.648 57.704C259.648 80.146 270.938 80.595 273.298 80.604H273.495C275.716 80.592 288.5 79.8851 288.5 56.7541L288.48 56.7761C288.48 38.3291 281.367 31.849 275.077 31.849ZM185.355 58.295L185.27 58.2961C184.287 58.3081 175.05 58.4261 172.712 58.8661C160.956 61.1231 159.774 68.278 159.774 71.339C159.769 72.4325 159.993 73.5149 160.432 74.5165C160.871 75.5181 161.515 76.4167 162.322 77.1543C163.129 77.8919 164.082 78.4523 165.119 78.7993C166.156 79.1463 167.254 79.2723 168.343 79.169C172.351 79.1794 176.229 77.7516 179.273 75.1451C182.318 72.5386 184.326 68.9265 184.933 64.965C185.211 62.7526 185.352 60.525 185.355 58.295ZM115.388 8.10505H105.805V40.6291H112.433C134.953 40.6291 135.65 26.699 135.65 22.879V22.739C135.625 18.075 134.34 8.10505 115.388 8.10505ZM313.532 1.45605V11.271H304.583V1.45605H313.532ZM80.8581 34.614H53.9051C53.4608 34.6168 53.0204 34.5314 52.6095 34.3627C52.1985 34.1939 51.8251 33.9453 51.511 33.6312C51.1968 33.317 50.9482 32.9436 50.7794 32.5327C50.6107 32.1217 50.5253 31.6813 50.5281 31.237V4.28505C50.5281 3.84256 50.4406 3.40444 50.2706 2.99589C50.1007 2.58735 49.8516 2.21645 49.5377 1.90454C49.2238 1.59263 48.8514 1.34587 48.4418 1.17846C48.0322 1.01104 47.5936 0.92628 47.1511 0.929049H37.0631C36.6206 0.92628 36.1819 1.01104 35.7723 1.17846C35.3627 1.34587 34.9903 1.59263 34.6764 1.90454C34.3626 2.21645 34.1135 2.58735 33.9435 2.99589C33.7736 3.40444 33.6861 3.84256 33.6861 4.28505V31.237C33.6889 31.6813 33.6034 32.1217 33.4347 32.5327C33.266 32.9436 33.0173 33.317 32.7032 33.6312C32.389 33.9453 32.0157 34.1939 31.6047 34.3627C31.1937 34.5314 30.7533 34.6168 30.3091 34.614H20.2191C19.7749 34.6167 19.3346 34.5312 18.9238 34.3624C18.5129 34.1936 18.1396 33.9449 17.8256 33.6308C17.5116 33.3167 17.263 32.9433 17.0944 32.5324C16.9257 32.1215 16.8403 31.6812 16.8431 31.237V4.28505C16.846 3.84071 16.7606 3.40022 16.592 2.98913C16.4233 2.57804 16.1747 2.20453 15.8605 1.89028C15.5464 1.57604 15.173 1.3273 14.7619 1.15852C14.3509 0.989736 13.9104 0.904259 13.4661 0.907049H3.35607C2.9135 0.907039 2.47529 0.994568 2.06668 1.1646C1.65808 1.33463 1.28713 1.5838 0.97521 1.89776C0.663287 2.21173 0.416546 2.58429 0.24919 2.99401C0.0818349 3.40372 -0.00282914 3.84248 7.21166e-05 4.28505V81.786C-0.00271658 82.2303 0.0827282 82.6707 0.251451 83.0817C0.420173 83.4926 0.668815 83.866 0.982956 84.1802C1.2971 84.4943 1.67048 84.7429 2.08146 84.9117C2.49243 85.0804 2.93282 85.1658 3.37707 85.163H80.8571C81.3014 85.166 81.7419 85.0806 82.153 84.912C82.5641 84.7433 82.9376 84.4947 83.2518 84.1805C83.5661 83.8664 83.8148 83.4929 83.9836 83.0819C84.1524 82.6709 84.2379 82.2304 84.2351 81.786V38.0541C84.2463 37.6045 84.1672 37.1574 84.0022 36.739C83.8373 36.3207 83.59 35.9398 83.275 35.619C82.96 35.2981 82.5837 35.0438 82.1685 34.8712C81.7534 34.6985 81.3077 34.6111 80.8581 34.614ZM67.3081 63.2341C67.3108 63.8983 67.1824 64.5566 66.9301 65.1711C66.6778 65.7856 66.3066 66.3443 65.8379 66.815C65.3691 67.2857 64.812 67.6592 64.1986 67.914C63.5851 68.1689 62.9274 68.3001 62.2631 68.3H55.5101C54.8458 68.3001 54.1881 68.1689 53.5747 67.914C52.9613 67.6591 52.4043 67.2856 51.9356 66.8149C51.467 66.3442 51.0959 65.7856 50.8437 65.1711C50.5915 64.5566 50.4632 63.8983 50.4661 63.2341V56.501C50.4634 55.8369 50.592 55.1788 50.8442 54.5645C51.0965 53.9502 51.4676 53.3917 51.9363 52.9211C52.4049 52.4505 52.9618 52.0771 53.5751 51.8223C54.1884 51.5674 54.8459 51.4362 55.5101 51.4361H62.2641C62.9283 51.4359 63.586 51.567 64.1995 51.8217C64.8129 52.0765 65.37 52.4498 65.8388 52.9205C66.3076 53.3911 66.6788 53.9497 66.9311 54.5641C67.1834 55.1786 67.3118 55.8368 67.3091 56.501L67.3081 63.2341Z" fill="#FF6600"/>
</g>
<defs>
<clipPath id="clip0_76_2136">
<rect width="512" height="87" fill="white"/>
</clipPath>
</defs>
</svg>
